<?xml version="1.0" encoding="UTF-8" standalone="no"?>
<!-- Created with Inkscape (http://www.inkscape.org/) -->

<svg
   version="1.1"
   id="svg1"
   width="440"
   height="422"
   viewBox="0 0 440 422"
   xmlns="http://www.w3.org/2000/svg"
   xmlns:svg="http://www.w3.org/2000/svg">
  <defs
     id="defs1" />
  <g
     id="g1">
    <g
       id="g2303"
       transform="translate(-3.6604712,-3.1375465)">
      <path
         style="fill:#eed556"
         d="m 292.79501,231.53711 c -0.98818,-1.31976 -1.39915,-2.39956 -0.91328,-2.39956 0.48588,0 2.41939,-3.01724 4.29669,-6.70498 9.37448,-18.41506 23.86418,-27.01217 47.64491,-28.26895 28.64445,-1.51383 55.26836,-17.78063 55.26836,-33.76812 0,-0.69187 0.41251,-1.25795 0.91668,-1.25795 2.01236,0 5.3245,-18.19777 4.7322,-26 -3.39514,-44.723699 -54.41052,-68.101407 -90.61559,-41.524438 -7.7681,5.702308 -18.96482,21.109968 -19.02062,26.174028 -0.007,0.63227 -1.80541,3.5355 -3.99655,6.45163 -2.19113,2.91612 -4.10363,5.55651 -4.25,5.86753 -3.56695,7.57948 -29.29028,18.0768 -40.92108,16.6993 -5.69807,-0.67485 -5.95831,-0.32729 -7.93342,10.59524 -2.45065,13.55227 -2.90357,12.01509 4.46256,15.14573 6.08321,2.5854 15.62393,10.48424 20.68973,17.12919 5.65067,7.41214 10.8412,33.46179 6.66745,33.46179 -0.86058,0 -1.71469,0.44689 -1.89803,0.99309 -0.18333,0.54621 -0.36098,-3.39129 -0.39477,-8.75 -0.12911,-20.47392 -12.85052,-36.94555 -33.68856,-43.61981 -2.20535,-0.70636 -2.20453,-0.7179 1.07571,-15.12328 l 2.73251,-12 10.97089,-0.62019 c 21.41921,-1.21083 35.26466,-10.03573 43.74089,-27.87981 27.95223,-58.844822 109.54389,-47.310312 115.3082,16.30097 3.2359,35.70942 -23.16053,62.74319 -63.0782,64.60121 -25.76884,1.19945 -41.15175,11.81117 -48.87891,33.71853 l -1.12109,3.17841 z"
         id="path2307" />
      <path
         style="fill:#f7d539"
         d="m 289.71669,229.61969 c -0.83482,-0.83482 -1.87946,-1.40095 -2.32143,-1.25806 -1.46326,0.47308 -13.30357,-3.52253 -13.30357,-4.4894 0,-0.52176 -0.61119,-0.71413 -1.35819,-0.42747 -1.06079,0.40706 -1.47795,-1.48605 -1.90508,-8.64539 -0.54916,-9.20458 -3.8991,-20.17352 -7.67282,-25.12361 -5.0658,-6.64495 -14.60652,-14.54379 -20.68973,-17.12919 -7.36613,-3.13064 -6.91321,-1.59346 -4.46256,-15.14573 1.97511,-10.92253 2.23535,-11.27009 7.93342,-10.59524 11.6308,1.3775 37.35413,-9.11982 40.92108,-16.6993 0.14637,-0.31102 2.05887,-2.95141 4.25,-5.86753 2.19114,-2.91613 3.98958,-5.81936 3.99655,-6.45163 0.0558,-5.06406 11.25252,-20.47172 19.02062,-26.174028 36.20507,-26.576969 87.22045,-3.199261 90.61559,41.524438 0.5923,7.80223 -2.71984,26 -4.7322,26 -0.50417,0 -0.91668,0.56608 -0.91668,1.25795 0,15.98749 -26.62391,32.25429 -55.26836,33.76812 -23.78073,1.25678 -38.27043,9.85389 -47.64491,28.26895 -1.8773,3.68774 -3.81636,6.70498 -4.30902,6.70498 -0.49266,0 -0.61763,0.45 -0.27771,1 0.92823,1.5019 -0.15419,1.20295 -1.875,-0.51786 z"
         id="path2306" />
      <path
         style="fill:#f39137"
         d="m 288.63901,405.60004 c -29.41388,-8.06916 -43.80055,-29.95109 -44.02571,-66.96249 -0.13937,-22.91037 -10.62443,-40.2458 -28.98385,-47.92036 -5.48018,-2.29081 -5.9306,-3.58476 -4.10579,-11.79487 0.89052,-4.00663 1.77574,-8.40977 1.96716,-9.78477 0.99253,-7.12981 2.00575,-7.99955 9.32612,-8.00558 20.99261,-0.0173 41.28673,-15.54998 44.80255,-34.29094 0.83895,-4.47196 -0.29228,-4.45679 12.57691,-0.16859 14.13923,4.71139 13.97421,4.55641 12.74033,11.96511 -3.79092,22.76208 8.40306,43.06334 33.05633,55.03415 64.63875,31.38641 31.45927,130.806 -37.35405,111.92834 z"
         id="path2305" />
      <path
         style="fill:#ec6966"
         d="M 87.091691,347.57747 C 17.313186,332.5367 31.425856,233.29457 103.59169,231.54733 c 23.09466,-0.55915 35.22331,-7.61674 44.6621,-25.9886 2.28385,-4.44533 3.81158,-6.35981 4.8379,-6.06262 0.825,0.23889 6.9,2.01015 13.5,3.93614 l 12,3.5018 0.61094,9.35175 c 1.41536,21.66506 14.47699,37.94214 34.49087,42.9817 2.66581,0.67126 4.26688,1.41382 3.55793,1.65013 -1.43514,0.47838 -3.22865,4.39862 -3.76061,8.21992 -0.19142,1.375 -1.07908,5.79032 -1.9726,9.81184 -1.51563,6.82146 -1.51122,7.4371 0.0657,9.1796 1.64314,1.81565 1.55777,1.82788 -3.05991,0.43816 -21.83546,-6.57151 -44.2929,4.13009 -56.05778,26.71311 -13.26171,25.45621 -38.73291,38.03983 -65.374569,32.29721 z"
         id="path2304" />
      <path
         style="fill:#2fbbc9"
         d="m 175.09169,205.99443 c -1.925,-0.5295 -8.05274,-2.34197 -13.61721,-4.02771 l -10.11721,-3.06498 0.95148,-4.1321 C 157.16236,173.69146 145.56655,149.64263 126.3933,141.023 103.15379,130.57532 94.156385,123.40123 86.846368,109.49024 55.239411,49.342096 132.30937,-8.8241899 180.20004,39.034306 c 13.27993,13.27101 18.54221,27.207536 18.16324,48.10324 -0.48546,26.768094 19.58599,56.000004 38.45119,56.000004 0.82016,0 1.28045,0.5625 1.02286,1.25 -0.25759,0.6875 -1.71363,6.93748 -3.23564,13.88886 l -2.76731,12.63886 -9.62134,0.39251 c -18.97636,0.77415 -34.88915,12.74353 -40.65454,30.57977 -0.93336,2.8875 -1.98272,5.20941 -2.33191,5.15981 -0.3492,-0.0496 -2.2099,-0.52342 -4.1349,-1.05293 z"
         id="path2303" />
    </g>
  </g>
</svg>
